<svg width="65" height="52" viewBox="0 0 65 52" fill="none" xmlns="http://www.w3.org/2000/svg">
<path d="M6.5495 51.181C6.06181 51.181 5.30184 51.1668 4.26961 51.1384C3.75349 51.1202 3.28398 51.106 2.86108 51.0958C2.43989 51.0873 2.06815 51.0873 1.74927 51.0958L0.044034 51.1384C0.00739694 51.0694 -0.00690244 50.9908 0.00311011 50.9133C0.00311011 50.7905 0.0167503 50.7309 0.044034 50.7309C0.158797 50.7273 0.272978 50.713 0.385081 50.6882C0.518273 50.6604 0.649785 50.6251 0.778989 50.5825C0.87168 50.5627 0.954071 50.51 1.01091 50.4341C1.07571 50.3318 1.1098 49.8902 1.1098 49.1109V43.7906C1.12624 43.3607 1.09306 42.9305 1.01091 42.5082C0.992151 42.452 0.920533 42.4042 0.799461 42.3616C0.67095 42.3166 0.539277 42.2813 0.405543 42.2558C0.293516 42.2306 0.179294 42.2163 0.064496 42.2132C0.0269809 42.2132 0.00823081 42.1518 0.00823081 42.0308C-0.00127827 41.9514 0.0187437 41.8712 0.064496 41.8057C0.148621 41.8057 0.291864 41.8125 0.494218 41.8261L1.14733 41.8688C1.38265 41.8824 1.58386 41.8892 1.75268 41.8892C2.05451 41.8892 2.35462 41.8773 2.65475 41.8551C2.95487 41.833 3.19872 41.8142 3.3863 41.8057C3.40457 41.8747 3.4143 41.9457 3.41528 42.0171C3.41528 42.1484 3.39483 42.2132 3.35731 42.2132C3.25766 42.2205 3.15889 42.2371 3.0623 42.2627C2.92909 42.2932 2.7976 42.3307 2.66839 42.3752C2.54561 42.4178 2.4757 42.4622 2.45694 42.5082C2.36171 42.938 2.31934 43.3778 2.33076 43.8178V49.1245C2.32235 49.5414 2.36472 49.9576 2.45694 50.3642C2.4865 50.4586 2.80595 50.5058 3.41528 50.5058H4.09738C4.96022 50.5058 5.55138 50.4256 5.87082 50.2653C6.0647 50.1374 6.22636 49.9664 6.34316 49.7657C6.52775 49.4812 6.66751 49.1701 6.75754 48.8432C6.77629 48.7869 6.8428 48.7596 6.95535 48.7596C7.0787 48.7438 7.20358 48.7735 7.30663 48.8432C7.27934 48.9199 7.2333 49.0341 7.17361 49.1842C7.11393 49.3343 7.05254 49.4963 7.00309 49.6549C6.95364 49.8134 6.90078 49.9516 6.86327 50.0641C6.807 50.2346 6.74561 50.4256 6.68081 50.6405C6.62253 50.8168 6.57862 50.9976 6.5495 51.181Z" fill="#F0E2D7"/>
<path d="M8.84435 51.1658C8.79961 51.1056 8.77948 51.0306 8.78808 50.9561C8.78808 50.8248 8.80684 50.7583 8.84435 50.7583C8.99216 50.7527 9.13874 50.7292 9.28089 50.6883C9.42097 50.6629 9.54935 50.5937 9.64751 50.4905C9.76877 50.3302 9.87496 50.1589 9.96469 49.979C10.0716 49.763 10.1852 49.4953 10.3057 49.1758L12.7579 42.8767C12.799 42.7805 12.8343 42.682 12.8636 42.5817C12.8772 42.5254 12.8926 42.4759 12.9062 42.4333C12.9199 42.3907 12.9505 42.3191 12.9966 42.215C13.0514 42.1038 13.1196 41.9996 13.1995 41.9047C13.242 41.8634 13.2931 41.8319 13.349 41.8125C13.405 41.7931 13.4646 41.7861 13.5235 41.7921L13.6497 41.8331L16.465 49.2662C16.5503 49.4827 16.6356 49.6737 16.6987 49.8443C16.7617 50.0148 16.8265 50.158 16.8692 50.2808C16.9199 50.3888 17.0068 50.4756 17.1147 50.5263C17.2402 50.5958 17.3721 50.6529 17.5086 50.6969C17.6108 50.7328 17.7176 50.7541 17.8258 50.76C17.8633 50.76 17.8821 50.8486 17.8821 51.0277C17.8843 51.0487 17.8843 51.0698 17.8821 51.0908C17.8821 51.1146 17.8753 51.1402 17.8616 51.1675C17.391 51.1482 17.0272 51.1323 16.7703 51.1198C16.5111 51.1044 16.3593 51.0976 16.3133 51.0976L14.6797 51.1675C14.6336 51.0996 14.6159 51.0164 14.6302 50.9356C14.6302 50.8196 14.6558 50.7651 14.6933 50.7651C14.8367 50.76 14.9788 50.7365 15.1162 50.6952C15.2867 50.6474 15.3839 50.5877 15.4112 50.5127C15.421 50.4757 15.4284 50.4381 15.4334 50.4002C15.4334 50.3626 15.4334 50.3234 15.4334 50.2876C15.4316 50.1434 15.4173 49.9996 15.3907 49.8579C15.3706 49.7259 15.3375 49.5962 15.2918 49.4708L14.6592 47.7246C14.6503 47.7093 14.638 47.6962 14.6232 47.6865C14.6084 47.6767 14.5915 47.6705 14.5739 47.6684C14.209 47.6394 13.8509 47.6257 13.5047 47.6257C13.2609 47.6257 12.9932 47.6257 12.6948 47.6479L11.716 47.6974L11.646 47.7383L11.0407 49.2866C10.9608 49.4781 10.8975 49.6761 10.8514 49.8784C10.8222 50.0031 10.8056 50.1305 10.802 50.2586C10.7968 50.3111 10.8043 50.3641 10.8239 50.413C10.8435 50.462 10.8746 50.5055 10.9145 50.54C11.0366 50.6252 11.1756 50.6834 11.322 50.7105C11.456 50.7451 11.5931 50.7663 11.7313 50.7736C11.7586 50.7736 11.7756 50.8299 11.7808 50.9441C11.7881 51.0244 11.7806 51.1053 11.7586 51.1829L10.3091 51.1129C10.0538 51.0924 9.79716 51.0924 9.54179 51.1129L8.84435 51.1658ZM13.0119 46.9436C13.4331 46.9436 13.8645 46.93 14.2926 46.901L14.3352 46.8311L13.1995 43.7293L11.9888 46.8669C11.9888 46.9044 11.999 46.9232 12.0178 46.9232L12.63 46.9454C12.7885 46.9419 12.9182 46.9436 13.0119 46.9436Z" fill="#F0E2D7"/>
<path d="M32.3681 42.0237C32.3681 42.1584 32.3494 42.2232 32.3136 42.2232C32.1696 42.2361 32.0286 42.2718 31.8958 42.3289C31.7263 42.3803 31.5756 42.4806 31.4627 42.6171C31.1528 43.0576 30.8974 43.5339 30.7021 44.0358L27.9243 50.7954C27.8049 51.0955 27.6327 51.2473 27.4127 51.2473C27.3882 51.2485 27.3639 51.2423 27.3429 51.2295C27.322 51.2168 27.3053 51.198 27.2951 51.1757L25.699 47.6509L24.2836 50.7869C24.1523 51.087 23.9835 51.2387 23.7721 51.2387C23.7477 51.2393 23.7236 51.2328 23.7028 51.2201C23.6819 51.2074 23.6651 51.1891 23.6544 51.1671L20.2439 43.8875C20.1229 43.6181 19.995 43.3759 19.8654 43.1423C19.7358 42.9087 19.6062 42.7143 19.4851 42.5352C19.3915 42.4264 19.2692 42.3461 19.1321 42.3033C19.0019 42.2521 18.8643 42.2222 18.7246 42.2147C18.6888 42.2147 18.6734 42.1533 18.6734 42.0288C18.6638 41.9501 18.6819 41.8705 18.7246 41.8037L20.377 41.8753L21.7531 41.8037C21.7726 41.8794 21.7789 41.9578 21.7718 42.0356C21.7718 42.1567 21.7531 42.2061 21.7241 42.2061C21.5746 42.2079 21.4276 42.244 21.2944 42.3119C21.2305 42.333 21.1748 42.3733 21.1348 42.4273C21.0948 42.4814 21.0725 42.5465 21.071 42.6137C21.0932 42.9783 21.1957 43.3335 21.3711 43.6539L24.0841 49.4261C24.0877 49.4362 24.0936 49.4454 24.1013 49.4529C24.109 49.4604 24.1183 49.466 24.1286 49.4693C24.1388 49.4726 24.1496 49.4735 24.1603 49.4719C24.1709 49.4703 24.181 49.4663 24.1899 49.4602C24.212 49.4505 24.2318 49.4362 24.2479 49.4183C24.2641 49.4003 24.2763 49.3792 24.2836 49.3562L25.3733 46.9228L23.9972 43.8807C23.8761 43.6112 23.7482 43.3691 23.6186 43.1355C23.489 42.9019 23.3594 42.7075 23.2366 42.5284C23.142 42.42 23.0193 42.3397 22.8819 42.2965C22.7529 42.2454 22.6164 42.2154 22.4778 42.2078C22.4437 42.2078 22.4232 42.1362 22.4232 41.9947C22.4175 41.9244 22.4368 41.8543 22.4778 41.7969L24.1268 41.8685L25.491 41.7969C25.5122 41.8722 25.5186 41.951 25.5097 42.0288C25.5097 42.1499 25.4909 42.1993 25.4654 42.1993C25.318 42.2001 25.1726 42.2327 25.0391 42.2948C24.9753 42.3183 24.9203 42.3608 24.8815 42.4167C24.8428 42.4725 24.8222 42.5389 24.8225 42.6069C24.8275 42.7572 24.8522 42.9063 24.8958 43.0502C24.955 43.2553 25.0314 43.4549 25.1243 43.6471L25.9889 45.5637L26.3043 46.2833L27.7316 49.4346C27.776 49.5199 27.8305 49.496 27.8902 49.363L30.2349 43.5788C30.306 43.4134 30.363 43.2423 30.4054 43.0673C30.437 42.9435 30.4542 42.8165 30.4566 42.6887C30.4556 42.6082 30.4292 42.53 30.3811 42.4654C30.333 42.4008 30.2657 42.353 30.1889 42.3289C30.04 42.2558 29.8772 42.2151 29.7114 42.2095C29.6773 42.2095 29.6585 42.1482 29.6585 42.0237C29.6494 41.9448 29.6681 41.8652 29.7114 41.7986L30.564 41.8497C30.7857 41.8634 30.946 41.8702 31.0415 41.8702C31.2956 41.8702 31.5309 41.86 31.7475 41.8429C31.964 41.8259 32.1652 41.8088 32.3375 41.7986C32.3573 41.872 32.3676 41.9476 32.3681 42.0237Z" fill="#F0E2D7"/>
<path d="M34.8564 51.1657C34.8117 51.1055 34.7916 51.0305 34.8002 50.956C34.8002 50.8246 34.8189 50.7581 34.8564 50.7581C34.9709 50.7553 35.0849 50.7434 35.1975 50.7223C35.332 50.7014 35.4641 50.6666 35.5914 50.6183C35.7142 50.5706 35.7841 50.5245 35.8028 50.4768C35.8461 50.3094 35.8718 50.1379 35.8796 49.9652C35.8949 49.7589 35.9017 49.5099 35.9017 49.2183V43.7616C35.9017 43.4717 35.9017 43.2193 35.8796 43.0079C35.8725 42.839 35.8468 42.6714 35.8028 42.5082C35.7841 42.452 35.7142 42.4042 35.5914 42.3616C35.4629 42.3166 35.3312 42.2813 35.1975 42.2558C35.0855 42.2306 34.9712 42.2163 34.8564 42.2132C34.8189 42.2132 34.8002 42.1518 34.8002 42.0308C34.7907 41.9514 34.8107 41.8712 34.8564 41.8057C34.9406 41.8057 35.0838 41.8125 35.2862 41.8261L35.9393 41.8688C36.1746 41.8824 36.3758 41.8892 36.5446 41.8892C36.8465 41.8892 37.1466 41.8773 37.4467 41.8551C37.7468 41.833 37.9907 41.8142 38.1782 41.8057C38.2013 41.8807 38.2083 41.9597 38.1987 42.0376C38.1987 42.1552 38.1782 42.2081 38.151 42.2081C38.0507 42.2152 37.9514 42.2318 37.8542 42.2576C37.721 42.2878 37.5895 42.3254 37.4603 42.3701C37.3376 42.4127 37.2676 42.4571 37.2489 42.5031C37.1537 42.9329 37.1113 43.3727 37.1227 43.8127V45.9102L37.15 45.9528C37.6104 45.963 38.0179 45.9698 38.376 45.975C38.7341 45.9801 39.0377 45.975 39.29 45.975C39.5424 45.975 39.8732 45.975 40.2194 45.975C40.5656 45.975 40.9509 45.963 41.3738 45.9528C41.3819 45.9457 41.3885 45.9371 41.3932 45.9274C41.3979 45.9178 41.4006 45.9073 41.4011 45.8965V43.7616C41.4011 43.4717 41.4011 43.2193 41.3807 43.0079C41.3736 42.839 41.3479 42.6714 41.3039 42.5082C41.2852 42.452 41.2135 42.4042 41.0925 42.3616C40.9638 42.3171 40.8322 42.2817 40.6986 42.2558C40.5865 42.2306 40.4723 42.2163 40.3575 42.2132C40.3183 42.2132 40.3012 42.1518 40.3012 42.0308C40.2909 41.9513 40.311 41.8709 40.3575 41.8057C40.4326 41.8057 40.5724 41.8057 40.7787 41.8261L41.4472 41.8688C41.687 41.8824 41.8917 41.8892 42.061 41.8892C42.3612 41.8892 42.6562 41.8773 42.9478 41.8551C43.2394 41.833 43.4764 41.8142 43.6657 41.8057C43.6834 41.8748 43.6926 41.9458 43.693 42.0171C43.693 42.1484 43.6742 42.2132 43.6367 42.2132C43.537 42.2203 43.4382 42.2368 43.3417 42.2627C43.2084 42.2927 43.0768 42.3303 42.9478 42.3752C42.825 42.4178 42.7551 42.4622 42.7363 42.5082C42.6939 42.6888 42.6654 42.8724 42.6511 43.0573C42.6323 43.2739 42.6238 43.528 42.6238 43.8178V49.1672C42.6238 49.4588 42.6323 49.7128 42.6511 49.9277C42.6651 50.1127 42.6936 50.2963 42.7363 50.4768C42.7551 50.5143 42.825 50.5569 42.9478 50.603C43.0753 50.6526 43.2072 50.6902 43.3417 50.7155C43.4386 50.7384 43.5373 50.7527 43.6367 50.7581C43.6742 50.7581 43.693 50.8281 43.693 50.9696C43.692 51.0358 43.6828 51.1017 43.6657 51.1657C43.195 51.1464 42.8267 51.1305 42.5607 51.118C42.293 51.1026 42.1258 51.0958 42.061 51.0958L40.3558 51.1657C40.3081 51.0958 40.288 51.0108 40.2995 50.927C40.2995 50.8144 40.3166 50.7564 40.3558 50.7564C40.4703 50.7536 40.5843 50.7416 40.6969 50.7206C40.8313 50.6993 40.9633 50.6645 41.0908 50.6166C41.2118 50.5689 41.2835 50.5228 41.3022 50.4751C41.3455 50.3077 41.3712 50.1362 41.379 49.9635C41.3926 49.7566 41.3994 49.5076 41.3994 49.2166V46.7457L41.3721 46.6895L40.1904 46.669C39.8494 46.669 39.5424 46.669 39.2883 46.669C37.8434 46.669 37.121 46.6923 37.121 46.7389V49.174C37.1103 49.614 37.1527 50.0537 37.2472 50.4836C37.2659 50.5211 37.3358 50.5637 37.4586 50.6098C37.5862 50.6592 37.7181 50.6968 37.8525 50.7223C37.95 50.7451 38.0493 50.7594 38.1492 50.765C38.1765 50.765 38.1936 50.8212 38.197 50.9355C38.2055 51.0156 38.1986 51.0967 38.1765 51.1742C37.7076 51.1555 37.3359 51.1401 37.0647 51.1265C36.7936 51.1128 36.6179 51.1043 36.5429 51.1043L34.8564 51.1657Z" fill="#F0E2D7"/>
<path d="M50.6922 51.125C49.5747 51.125 48.7164 50.7965 48.1173 50.1394C47.5182 49.4823 47.2175 48.4216 47.2152 46.9574V43.7618C47.2152 43.4719 47.2152 43.2195 47.1948 43.0081C47.1877 42.8392 47.162 42.6717 47.118 42.5085C47.0976 42.4522 47.0276 42.4044 46.9066 42.3618C46.7774 42.3171 46.6452 42.2818 46.511 42.2561C46.399 42.2306 46.2847 42.2163 46.1699 42.2134C46.1324 42.2134 46.1136 42.1521 46.1136 42.031C46.1041 41.9516 46.1242 41.8715 46.1699 41.8059L47.8598 41.8758C47.9348 41.8758 48.1088 41.869 48.3816 41.8554C48.6527 41.84 49.0228 41.8247 49.4934 41.8059C49.5104 41.8699 49.5196 41.9358 49.5207 42.002C49.5207 42.1435 49.5019 42.2134 49.4644 42.2134C49.3647 42.2205 49.266 42.2371 49.1694 42.2629C49.0361 42.293 48.9046 42.3305 48.7755 42.3754C48.6527 42.4181 48.5828 42.4624 48.5641 42.5085C48.4673 42.938 48.4243 43.3779 48.4362 43.8181V46.9574C48.4362 48.0181 48.6635 48.8627 49.1183 49.4914C49.3321 49.7968 49.6196 50.0433 49.954 50.2081C50.2884 50.373 50.659 50.4508 51.0315 50.4344C52.6379 50.4344 53.4405 49.3788 53.4393 47.2678V43.7482C53.4558 43.3325 53.4226 42.9163 53.3404 42.5085C53.3217 42.4522 53.2381 42.401 53.088 42.355C52.9308 42.3058 52.7708 42.2659 52.6089 42.2356C52.4839 42.2074 52.3566 42.1909 52.2286 42.1862C52.1911 42.1862 52.1723 42.1293 52.1723 42.0156C52.1638 41.9406 52.1839 41.8651 52.2286 41.8042C52.3139 41.8042 52.4537 41.8042 52.6515 41.8247L53.291 41.8673C53.5183 41.8809 53.7178 41.8878 53.8895 41.8878C54.1333 41.8878 54.4437 41.8741 54.8189 41.8451C55.194 41.8161 55.4003 41.8042 55.4668 41.8042C55.4841 41.8762 55.4921 41.9501 55.4907 42.0242C55.4907 42.1367 55.4702 42.1947 55.4327 42.1947C55.3143 42.2042 55.1969 42.223 55.0815 42.251C54.9109 42.2885 54.7404 42.3311 54.5818 42.3772C54.4232 42.4232 54.3397 42.4709 54.3209 42.517C54.2792 42.6976 54.2512 42.8812 54.2374 43.0661C54.2186 43.2826 54.2084 43.5367 54.2084 43.8266V47.2473C54.2084 48.2136 54.0725 48.981 53.8008 49.5494C53.5606 50.0844 53.1374 50.5162 52.6072 50.7669C52.0024 51.0239 51.3489 51.1461 50.6922 51.125Z" fill="#F0E2D7"/>
<path d="M57.7777 51.1658C57.7401 51.0972 57.7251 51.0184 57.7351 50.9407C57.7351 50.8196 57.7504 50.7583 57.7777 50.7583C57.8929 50.7551 58.0074 50.7385 58.1188 50.7088C58.2554 50.678 58.3899 50.6381 58.5212 50.5894C58.6142 50.5663 58.6963 50.5115 58.7531 50.4343C58.8179 50.332 58.852 49.8903 58.852 49.111V43.7907C58.852 43.5178 58.8435 43.2791 58.8299 43.0728C58.8228 42.9062 58.797 42.7409 58.7531 42.58C58.7344 42.5237 58.661 42.4725 58.5348 42.4248C58.402 42.3752 58.2651 42.3375 58.1256 42.3122C58.0135 42.2874 57.8993 42.2732 57.7845 42.2696C57.747 42.2696 57.7283 42.2128 57.7283 42.0991C57.7179 42.0153 57.7379 41.9306 57.7845 41.8604C58.0284 41.8689 58.2961 41.8757 58.5655 41.8808C58.835 41.8859 59.1402 41.8808 59.4608 41.8808L60.6425 41.8672H61.4457C61.5667 41.8672 61.6912 41.8672 61.8174 41.8808C61.9436 41.8945 62.0681 41.9047 62.1909 41.9234C62.5631 41.9888 62.922 42.115 63.2532 42.2969C63.5806 42.4742 63.8607 42.7274 64.07 43.0353C64.2898 43.3742 64.4004 43.7723 64.3872 44.1761C64.3826 44.5169 64.269 44.8473 64.0632 45.1191C63.9021 45.3555 63.6993 45.5607 63.4647 45.7244C63.3165 45.8201 63.1588 45.9001 62.994 45.9631C62.919 45.9921 62.8951 46.0194 62.9224 46.0484C63.1485 46.0906 63.364 46.177 63.5568 46.3025C63.8063 46.4528 64.0355 46.6345 64.2388 46.843C64.4558 47.0662 64.6385 47.3201 64.7811 47.5968C64.9245 47.8703 64.9994 48.1746 64.9994 48.4835C65.0102 48.9842 64.8542 49.4743 64.556 49.8767C64.2336 50.2917 63.802 50.6088 63.3095 50.7924C62.7073 51.0199 62.0671 51.1299 61.4235 51.1164H59.4812L57.7777 51.1658ZM61.0023 45.8796C61.2655 45.8811 61.5286 45.8669 61.7901 45.837C62.1466 45.8107 62.4851 45.6702 62.7553 45.4362C62.8833 45.3202 62.9842 45.1774 63.0508 45.0179C63.1175 44.8585 63.1481 44.6863 63.1407 44.5137C63.1407 43.8657 62.9804 43.361 62.6564 42.9994C62.3324 42.6379 61.8515 42.4572 61.2121 42.4572C60.8761 42.4464 60.5401 42.4796 60.2128 42.5561C60.1565 42.5663 60.1292 42.609 60.1292 42.6823L60.073 44.1044V45.7756C60.073 45.8404 60.3816 45.8745 61.0023 45.8745V45.8796ZM61.0586 50.4957C61.2916 50.4957 61.5243 50.4769 61.7543 50.4394C62.0349 50.3883 62.3104 50.313 62.578 50.2143C62.8893 50.1175 63.1609 49.9225 63.3521 49.6584C63.5581 49.3644 63.6623 49.011 63.6488 48.6523C63.6534 48.2695 63.5613 47.8918 63.3811 47.5541C63.1934 47.216 62.909 46.9417 62.5643 46.7663C62.1219 46.5518 61.6334 46.4498 61.1421 46.4696C61.0398 46.4696 60.9034 46.4696 60.7346 46.4832C60.5658 46.4969 60.3629 46.5071 60.1292 46.5259C60.0854 46.677 60.0664 46.8342 60.073 46.9914V49.0377C60.073 49.7505 60.148 50.1682 60.2981 50.291C60.4481 50.4257 60.7005 50.4905 61.0586 50.4905V50.4957Z" fill="#F0E2D7"/>
<path fill-rule="evenodd" clip-rule="evenodd" d="M38.9492 25.6215C38.9492 25.6215 41.6622 15.6373 38.2381 9.23931C38.2381 9.23931 41.6485 12.9073 43.069 16.3007C43.069 16.3007 43.1969 14.3942 42.4551 13.2944C42.4551 13.2944 45.1357 16.3638 45.2977 20.1767C45.2977 20.1767 48.4644 12.1621 36.6386 5.44346C36.6386 5.44346 39.3533 5.73336 40.709 6.86563C40.709 6.86563 39.1589 4.94213 37.5747 4.42544C38.4873 4.26374 39.4277 4.41327 40.2451 4.85005C40.2451 4.85005 33.6851 0.293662 29.3231 2.58891C29.3231 2.58891 28.1755 3.68708 29.2259 4.44591C29.2259 4.44591 24.395 3.94627 23.2576 8.79254C23.2576 8.79254 18.1692 12.4929 17.7003 13.5587C17.7003 13.5587 19.0644 13.8332 19.622 13.3881C19.622 13.3881 19.9784 14.5511 18.8155 15.003C20.0791 16.5838 23.0479 17.6205 25.0191 17.039C25.0191 17.039 24.8742 18.3316 23.2747 17.7211C22.6815 17.5392 22.0764 17.399 21.4637 17.3017C21.4637 17.3017 20.5275 19.1433 22.127 20.2244C22.1356 20.2347 22.5533 19.4366 23.8323 18.9506C25.5818 18.2839 28.2539 18.7426 29.289 17.213C30.3241 15.6834 29.3999 12.348 28.0016 11.1611C30.2815 12.1843 31.881 13.6917 31.4496 15.7652C30.2798 21.3277 22.5141 17.4688 22.6676 23.096C22.6676 23.096 21.7979 21.5409 20.8481 20.6627C20.6784 20.5057 20.5439 20.3145 20.4537 20.1016C20.3634 19.8888 20.3194 19.6592 20.3246 19.4281C20.3568 18.7605 20.3402 18.0914 20.2752 17.4261C20.2752 17.4261 17.4973 15.8744 16.9482 13.4836C18.3544 11.5445 20.0934 9.87019 22.0844 8.53847C22.0844 8.53847 22.3112 6.18013 26.3185 3.6598C31.2773 -3.84323 45.2466 5.61229 45.9645 8.92556C44.7539 7.96788 43.4428 7.14454 42.0544 6.47002C49.7279 12.5389 50.0451 24.0049 42.861 30.3433C42.861 30.3433 44.6719 24.8507 43.7664 22.2008C43.7664 22.2008 42.4739 32.2173 35.1721 35.6431C35.1721 35.6431 36.9165 29.9562 36.4646 27.695C36.4646 27.695 31.6167 31.7654 34.0773 38.8098C34.0773 38.8098 26.5163 36.6765 25.4829 29.5043C25.4829 29.5043 24.4496 32.2821 25.2237 33.9635C25.2237 33.9635 20.5719 25.1099 26.4515 20.7155C26.4515 20.7155 25.4181 24.2044 27.1626 27.1767C27.1626 27.1767 28.9718 19.972 31.6218 17.5813C31.6218 17.5813 29.9421 20.5535 30.9107 23.6554C30.9107 23.6554 36.0093 17.8576 31.4939 10.375C31.4939 10.375 33.755 11.6028 34.3928 12.7009C34.3928 12.7009 32.2595 8.88804 29.5465 7.33799C33.6629 8.32532 38.0897 13.2432 38.5604 17.6444C38.5604 17.6444 36.3436 14.737 35.4586 14.3328C35.4586 14.3328 37.527 21.8359 33.327 27.1221C33.327 27.1221 37.0223 24.346 37.4298 19.6583C37.4298 19.6583 39.5306 22.8573 38.9492 25.6027" fill="#F0E2D7"/>
<path fill-rule="evenodd" clip-rule="evenodd" d="M35.4141 6.45977C35.4141 6.45977 35.7688 8.65782 35.6392 9.52919C35.6392 9.52919 33.8299 6.74967 33.0557 6.31313L33.7975 7.68754C30.7281 7.00545 31.978 5.13822 33.1836 5.21496C33.1836 5.21496 31.504 4.39133 30.9549 6.24833L28.2061 5.14333C30.8475 5.49972 34.2068 0.789874 35.4124 6.45977" fill="#F0E2D7"/>
<path fill-rule="evenodd" clip-rule="evenodd" d="M27.801 8.43066C27.801 8.43066 26.0957 9.70788 24.6991 9.70788C24.0699 10.1661 23.3888 10.5485 22.6699 10.847C23.3316 10.1461 24.3206 9.40605 24.972 8.44771C24.972 8.44771 26.5408 8.49376 27.801 8.43066Z" fill="#F0E2D7"/>
</svg>
