<svg width="123" height="96" viewBox="0 0 123 96" fill="none" xmlns="http://www.w3.org/2000/svg">
<path d="M12.3899 95.2174C11.4671 95.2174 10.0281 95.1905 8.0728 95.1368C7.09839 95.1002 6.21109 95.0744 5.41091 95.0593C4.61073 95.0443 3.90949 95.0443 3.3072 95.0593L0.0806635 95.1368C0.0258123 95.0851 0 94.9432 0 94.7109C0 94.4785 0.0258123 94.3656 0.0806635 94.3656C0.297825 94.3591 0.513886 94.3321 0.725971 94.2849C0.978445 94.2343 1.22741 94.1675 1.47131 94.0849C1.6475 94.0494 1.80404 93.9493 1.91012 93.8042C2.03488 93.6106 2.09725 92.776 2.09725 91.3004V81.2336C2.13027 80.4213 2.06746 79.608 1.91012 78.8105C1.87355 78.7029 1.74126 78.6093 1.51325 78.5298C1.2684 78.4467 1.01834 78.3798 0.764693 78.3297C0.552788 78.2815 0.336627 78.2545 0.119385 78.2491C0.0484014 78.2491 0.0129089 78.1361 0.0129089 77.9038C-0.00508359 77.7536 0.0328156 77.602 0.119385 77.4779C0.280712 77.4779 0.551738 77.4908 0.93247 77.5166C1.3132 77.5457 1.7262 77.5715 2.17146 77.5973C2.61673 77.6231 2.99746 77.636 3.31689 77.636C3.88476 77.636 4.45263 77.6166 5.0205 77.5715C5.58837 77.5263 6.04976 77.494 6.40791 77.4779C6.44149 77.6086 6.45883 77.743 6.45953 77.878C6.45953 78.1264 6.42404 78.2491 6.35306 78.2491C6.16444 78.2624 5.97753 78.2937 5.79487 78.3426C5.52706 78.4072 5.27862 78.4749 5.04631 78.5556C4.814 78.6362 4.68494 78.7201 4.64944 78.8105C4.46589 79.6232 4.3846 80.4556 4.40745 81.2884V91.3294C4.39077 92.1173 4.47206 92.9041 4.64944 93.6719C4.70107 93.8483 5.30443 93.9376 6.45953 93.9397H7.75015C9.386 93.9397 10.5024 93.7881 11.109 93.4848C11.4739 93.2415 11.7785 92.9182 11.9995 92.5394C12.3508 92.0034 12.6154 91.4154 12.7836 90.7971C12.819 90.6906 12.9449 90.6357 13.1578 90.6357C13.3916 90.6068 13.628 90.6642 13.8225 90.7971C13.7709 90.939 13.687 91.1552 13.5708 91.4424C13.4547 91.7295 13.345 92.0328 13.2482 92.3329C13.1514 92.633 13.0514 92.8943 12.9804 93.1073C12.8739 93.4299 12.761 93.7913 12.6351 94.1978C12.5259 94.5305 12.4439 94.8715 12.3899 95.2174Z" fill="#37425E"/>
<path d="M16.7429 95.1914C16.6583 95.0762 16.6203 94.9334 16.6364 94.7914C16.6364 94.5429 16.6719 94.4171 16.7429 94.4171C17.0227 94.4079 17.3002 94.3635 17.5689 94.2848C17.8336 94.2382 18.0759 94.1068 18.2594 93.9105C18.4927 93.604 18.6938 93.2742 18.8595 92.9264C19.0628 92.5166 19.2822 92.0133 19.5048 91.4099L24.1414 79.5008C24.2177 79.3183 24.2845 79.132 24.3414 78.9426C24.3672 78.8372 24.393 78.7436 24.4188 78.6619C24.4479 78.5845 24.506 78.4457 24.5931 78.2489C24.6929 78.0393 24.8187 77.8431 24.9674 77.6649C25.0474 77.5872 25.1435 77.5279 25.2488 77.4912C25.3541 77.4544 25.4662 77.441 25.5772 77.4519L25.8192 77.5294L31.1462 91.5939C31.3043 92.0036 31.4527 92.3682 31.585 92.6877C31.7173 93.0071 31.8302 93.2813 31.9076 93.5136C32.0044 93.7185 32.17 93.8829 32.3755 93.9783C32.6123 94.1109 32.8621 94.219 33.1208 94.3009C33.3142 94.3689 33.5163 94.4091 33.721 94.4203C33.7919 94.4203 33.8274 94.5913 33.8274 94.9269C33.8264 94.9671 33.821 95.0072 33.8113 95.0463C33.8033 95.0969 33.7903 95.1466 33.7726 95.1947C32.8864 95.1581 32.198 95.1269 31.7076 95.1011C31.2204 95.0753 30.9332 95.0624 30.8429 95.0624L27.7519 95.1947C27.6667 95.0642 27.6344 94.9061 27.6615 94.7526C27.6615 94.5332 27.7099 94.43 27.7809 94.43C28.0513 94.4219 28.3194 94.3774 28.5779 94.2977C28.9005 94.2106 29.0844 94.0944 29.1393 93.9524C29.1543 93.8815 29.1672 93.8105 29.178 93.7395C29.1828 93.6686 29.1828 93.5975 29.178 93.5266C29.1743 93.2539 29.1484 92.9819 29.1006 92.7135C29.0622 92.4638 28.9995 92.2185 28.9134 91.981L27.7131 88.6771C27.6969 88.6483 27.6741 88.6236 27.6467 88.6051C27.6192 88.5867 27.5879 88.5748 27.555 88.5706C26.8613 88.519 26.187 88.4899 25.5288 88.4899C25.0674 88.4899 24.5608 88.4899 23.9994 88.5319L22.17 88.6029L22.0344 88.6803L20.889 91.6132C20.7375 91.9742 20.6176 92.3478 20.5309 92.7296C20.4772 92.966 20.4459 93.2069 20.4373 93.4491C20.4275 93.5484 20.4418 93.6486 20.4789 93.7413C20.5159 93.8339 20.5747 93.9163 20.6502 93.9815C20.8843 94.1364 21.148 94.2407 21.4246 94.288C21.677 94.3534 21.9354 94.3934 22.1958 94.4074C22.2474 94.4074 22.2797 94.5139 22.2893 94.73C22.3045 94.883 22.2903 95.0374 22.2474 95.185L19.5048 95.0527C19.0217 95.0123 18.536 95.0123 18.0529 95.0527L16.7429 95.1914ZM24.6253 87.1993C25.4255 87.1993 26.2386 87.1735 27.0517 87.1186L27.1291 86.9864L24.9738 81.1012L22.683 87.0412C22.683 87.1122 22.683 87.1477 22.7346 87.1477L23.8929 87.1864C24.2027 87.1961 24.4479 87.1993 24.6253 87.1993Z" fill="#37425E"/>
<path d="M61.2494 77.8779C61.2494 78.1296 61.2139 78.2522 61.1461 78.2522C60.8748 78.2769 60.6091 78.3444 60.3589 78.4523C60.0381 78.5496 59.753 78.7392 59.5393 78.9975C58.95 79.8308 58.4655 80.7335 58.0971 81.6852L52.8443 94.472C52.6152 95.0431 52.2893 95.3271 51.8763 95.3271C51.83 95.3289 51.7841 95.317 51.7445 95.2929C51.7049 95.2688 51.6733 95.2335 51.6537 95.1915L48.6272 88.5352L45.9459 94.472C45.7007 95.0431 45.3813 95.3271 44.9779 95.3271C44.9317 95.3285 44.886 95.3164 44.8465 95.2924C44.807 95.2683 44.7753 95.2333 44.7553 95.1915L38.3022 81.4174C38.0883 80.9352 37.8492 80.4646 37.5859 80.0074C37.3375 79.5783 37.0987 79.1976 36.8697 78.862C36.6931 78.6533 36.4601 78.4998 36.1985 78.42C35.9521 78.3231 35.6918 78.2665 35.4274 78.2522C35.3629 78.2522 35.3338 78.1361 35.3338 77.9037C35.316 77.7543 35.349 77.6031 35.4274 77.4746L38.5571 77.6101L41.1577 77.4746C41.198 77.6183 41.2111 77.7682 41.1964 77.9166C41.1964 78.1425 41.1577 78.2393 41.1061 78.2393C40.8232 78.2419 40.5448 78.3104 40.293 78.4393C40.1725 78.4797 40.0673 78.5561 39.9917 78.6583C39.9161 78.7604 39.8737 78.8834 39.8703 79.0104C39.9126 79.6999 40.1053 80.3717 40.435 80.9786L45.5716 91.9005C45.578 91.9196 45.5888 91.9369 45.603 91.9511C45.6173 91.9653 45.6347 91.9759 45.6538 91.9822C45.673 91.9885 45.6933 91.9902 45.7132 91.9872C45.7331 91.9842 45.752 91.9766 45.7685 91.965C45.8088 91.9452 45.8446 91.9172 45.8735 91.8827C45.9024 91.8483 45.9237 91.8081 45.9362 91.7649L47.998 87.1607L45.4006 81.4174C45.1867 80.9352 44.9476 80.4646 44.6843 80.0074C44.4391 79.5783 44.1971 79.1976 43.9616 78.862C43.7856 78.654 43.5539 78.5007 43.2937 78.42C43.0494 78.3235 42.7912 78.2669 42.529 78.2522C42.4612 78.2522 42.4258 78.1167 42.4258 77.8521C42.4129 77.7179 42.4496 77.5836 42.529 77.4746L45.6491 77.6101L48.2303 77.4746C48.2724 77.618 48.2845 77.7684 48.2658 77.9166C48.2658 78.1425 48.2303 78.2393 48.1819 78.2393C47.9031 78.2408 47.628 78.3024 47.3753 78.42C47.2546 78.4644 47.1505 78.5449 47.0772 78.6505C47.0039 78.7562 46.9649 78.8818 46.9655 79.0104C46.9753 79.296 47.0219 79.579 47.1042 79.8526C47.2183 80.2388 47.3628 80.6153 47.5366 80.9786L49.1724 84.5795L49.7661 85.9378L52.4667 91.9005C52.5506 92.0618 52.6539 92.0166 52.77 91.7649L57.2033 80.8238C57.3366 80.5103 57.4445 80.1866 57.526 79.8558C57.5839 79.6201 57.6164 79.3789 57.6228 79.1363C57.6199 78.9841 57.5695 78.8367 57.4787 78.7146C57.3879 78.5925 57.2611 78.5019 57.1162 78.4555C56.834 78.3183 56.5263 78.2413 56.2128 78.2296C56.145 78.2296 56.1095 78.1135 56.1095 77.8812C56.0924 77.7304 56.129 77.5785 56.2128 77.452L57.826 77.5488C58.2487 77.5746 58.5488 77.5875 58.7295 77.5875C59.2134 77.5875 59.6587 77.5682 60.0685 77.5359C60.4782 77.5037 60.859 77.4714 61.1816 77.452C61.2242 77.5901 61.247 77.7335 61.2494 77.8779Z" fill="#37425E"/>
<path d="M65.9439 95.1916C65.8593 95.0763 65.8213 94.9335 65.8374 94.7915C65.8374 94.543 65.8729 94.4172 65.9439 94.4172C66.1604 94.4135 66.3762 94.392 66.5892 94.3527C66.8445 94.3101 67.0952 94.2431 67.3377 94.1526C67.5668 94.0623 67.6991 93.9751 67.7346 93.8848C67.8161 93.5679 67.8658 93.2436 67.883 92.9168C67.9088 92.5275 67.9217 92.0564 67.9217 91.5036V81.1819C67.9217 80.6334 67.9088 80.1591 67.883 79.759C67.8678 79.4395 67.818 79.1225 67.7346 78.8136C67.698 78.7061 67.5657 78.6125 67.3377 78.5329C67.0929 78.4498 66.8428 78.383 66.5892 78.3329C66.3773 78.2847 66.1611 78.2577 65.9439 78.2522C65.8729 78.2522 65.8374 78.1393 65.8374 77.907C65.8194 77.7568 65.8573 77.6052 65.9439 77.4811C66.1052 77.4811 66.3762 77.494 66.7569 77.5198C67.1377 77.5488 67.5507 77.5746 67.9959 77.6005C68.4412 77.6263 68.8219 77.6392 69.1414 77.6392C69.7092 77.6392 70.2771 77.6198 70.845 77.5747C71.4128 77.5295 71.8742 77.4972 72.2324 77.4811C72.2761 77.623 72.2893 77.7725 72.2711 77.9199C72.2711 78.1425 72.2324 78.2425 72.1775 78.2425C71.9889 78.2559 71.802 78.2872 71.6193 78.3361C71.3515 78.4006 71.1031 78.4684 70.8708 78.5491C70.6385 78.6297 70.5094 78.7136 70.4739 78.804C70.2904 79.6167 70.2091 80.4491 70.2319 81.2819V85.2474L70.2868 85.328C71.1547 85.3474 71.9291 85.3603 72.6034 85.37C73.2778 85.3797 73.8553 85.37 74.3361 85.37C74.8168 85.37 75.4363 85.37 76.0946 85.37C76.7528 85.37 77.4787 85.3474 78.2757 85.328C78.2915 85.3148 78.3044 85.2986 78.3138 85.2803C78.3232 85.262 78.3289 85.242 78.3305 85.2215V81.1819C78.3305 80.6334 78.3176 80.1591 78.2918 79.759C78.2766 79.4395 78.2268 79.1225 78.1434 78.8136C78.1079 78.7072 77.9756 78.6136 77.7433 78.5329C77.4997 78.4494 77.2507 78.3826 76.998 78.3329C76.7861 78.2847 76.5699 78.2577 76.3527 78.2522C76.2817 78.2522 76.2462 78.1393 76.2462 77.907C76.2282 77.7568 76.2661 77.6052 76.3527 77.4811C76.4946 77.4811 76.7624 77.4811 77.1529 77.5198C77.5433 77.5585 77.9659 77.5746 78.4177 77.6005C78.8694 77.6263 79.2566 77.6392 79.576 77.6392C80.1439 77.6392 80.702 77.6198 81.2538 77.5747C81.8055 77.5295 82.2572 77.4972 82.6122 77.4811C82.6467 77.6117 82.6652 77.7461 82.667 77.8812C82.667 78.1296 82.6315 78.2522 82.5605 78.2522C82.3709 78.2657 82.1829 78.2971 81.9991 78.3458C81.7345 78.4103 81.4861 78.4781 81.2538 78.5587C81.0215 78.6394 80.8892 78.7233 80.8537 78.8136C80.7742 79.1553 80.7213 79.5027 80.6956 79.8526C80.6601 80.2591 80.6407 80.7399 80.6407 81.2916V91.4101C80.6407 91.9586 80.6601 92.4393 80.6956 92.8459C80.7213 93.1957 80.7742 93.5431 80.8537 93.8848C80.8892 93.9558 81.0247 94.0364 81.2538 94.1236C81.4954 94.2166 81.7448 94.2878 81.9991 94.3365C82.1836 94.3797 82.3714 94.4067 82.5605 94.4172C82.6315 94.4172 82.667 94.5527 82.667 94.8173C82.6637 94.9438 82.6453 95.0694 82.6122 95.1916C81.7259 95.155 81.029 95.1238 80.5214 95.098C80.0148 95.0722 79.6986 95.0593 79.576 95.0593L76.3495 95.1916C76.2609 95.0574 76.2231 94.8961 76.243 94.7366C76.243 94.5215 76.2785 94.414 76.3495 94.414C76.8221 94.401 77.2895 94.3117 77.7336 94.1494C77.9659 94.059 78.0982 93.9719 78.1337 93.8816C78.2153 93.5647 78.265 93.2404 78.2821 92.9136C78.308 92.5243 78.3209 92.0532 78.3209 91.5004V86.8251L78.266 86.7219C77.4357 86.7025 76.6979 86.6842 76.0526 86.667C75.4073 86.667 74.8265 86.667 74.349 86.667C71.6129 86.667 70.2448 86.7111 70.2448 86.7993V91.4101C70.224 92.2418 70.3053 93.0729 70.4868 93.8848C70.5223 93.9558 70.6546 94.0364 70.8837 94.1236C71.1263 94.217 71.3768 94.2883 71.6322 94.3365C71.8126 94.3771 71.9961 94.4019 72.1808 94.4107C72.2356 94.4107 72.2647 94.5172 72.2743 94.7334C72.2903 94.8861 72.2771 95.0405 72.2356 95.1883C71.3451 95.1528 70.6449 95.1206 70.1287 95.0948C69.6124 95.0689 69.2769 95.056 69.1414 95.056L65.9439 95.1916Z" fill="#37425E"/>
<path d="M95.9215 95.1109C93.8092 95.1109 92.1841 94.4892 91.0462 93.2459C89.9083 92.0026 89.3405 89.9957 89.3426 87.2252V81.1819C89.3426 80.6334 89.3426 80.1591 89.3007 79.759C89.2879 79.4394 89.2392 79.1223 89.1555 78.8136C89.12 78.7071 88.9877 78.6136 88.7554 78.5329C88.5118 78.4494 88.2628 78.3826 88.0101 78.3329C87.7981 78.2851 87.582 78.2581 87.3648 78.2522C87.2938 78.2522 87.2583 78.1393 87.2583 77.907C87.2403 77.7567 87.2782 77.6051 87.3648 77.4811L90.559 77.6133C90.7042 77.6133 91.0301 77.6133 91.5463 77.5746C92.0626 77.5359 92.7628 77.5166 93.6501 77.4811C93.6832 77.6021 93.7016 77.7267 93.7049 77.8521C93.7049 78.1199 93.6662 78.2522 93.5984 78.2522C93.4088 78.2657 93.2208 78.297 93.037 78.3458C92.7724 78.4103 92.524 78.4781 92.2917 78.5587C92.0594 78.6394 91.9271 78.7233 91.8916 78.8136C91.711 79.6268 91.6309 80.459 91.6528 81.2916V87.2284C91.6528 89.2353 92.083 90.8336 92.9434 92.0231C93.3484 92.6014 93.8928 93.0681 94.5262 93.38C95.1596 93.6919 95.8615 93.8389 96.5668 93.8073C99.6041 93.8073 101.123 91.8101 101.123 87.8157V81.1529C101.153 80.3674 101.09 79.5811 100.936 78.8104C100.9 78.7039 100.739 78.6039 100.455 78.5168C100.158 78.4237 99.8567 78.3483 99.5514 78.2909C99.3149 78.2377 99.0741 78.2064 98.8319 78.1974C98.7609 78.1974 98.7254 78.0898 98.7254 77.8747C98.7093 77.7327 98.7473 77.5898 98.8319 77.4746C98.99 77.4746 99.2578 77.4746 99.6288 77.5133C99.9999 77.552 100.406 77.5682 100.842 77.594C101.278 77.6198 101.655 77.6327 101.975 77.6327C102.436 77.6327 103.02 77.6069 103.733 77.5553C104.446 77.5036 104.833 77.4746 104.956 77.4746C104.99 77.6052 105.009 77.7396 105.011 77.8747C105.011 78.0898 104.975 78.1974 104.904 78.1974C104.68 78.2148 104.458 78.2504 104.24 78.3038C103.917 78.3748 103.594 78.4555 103.294 78.5426C102.994 78.6297 102.836 78.72 102.801 78.8104C102.72 79.152 102.666 79.4993 102.639 79.8493C102.604 80.2559 102.588 80.7366 102.588 81.2884V87.7608C102.588 89.587 102.329 91.0379 101.813 92.1134C101.36 93.1268 100.559 93.9441 99.5546 94.4172C98.4084 94.9098 97.1686 95.1465 95.9215 95.1109Z" fill="#37425E"/>
<path d="M109.331 95.1915C109.259 95.062 109.231 94.9126 109.25 94.7656C109.25 94.5333 109.276 94.4171 109.331 94.4171C109.549 94.4107 109.766 94.3793 109.976 94.3236C110.234 94.2652 110.487 94.1898 110.735 94.0977C110.911 94.055 111.067 93.951 111.173 93.8041C111.3 93.6105 111.363 92.7759 111.361 91.3003V81.2335C111.361 80.7173 111.361 80.2655 111.322 79.8751C111.306 79.5599 111.256 79.2473 111.173 78.9427C111.138 78.8362 110.999 78.7394 110.76 78.649C110.509 78.5586 110.251 78.4874 109.989 78.4361C109.777 78.3911 109.561 78.3642 109.344 78.3554C109.273 78.3554 109.237 78.2479 109.237 78.0328C109.218 77.8743 109.256 77.7141 109.344 77.5811C109.805 77.6004 110.296 77.6133 110.822 77.6198C111.348 77.6262 111.909 77.6198 112.512 77.6198L114.748 77.594H116.268C116.5 77.594 116.733 77.594 116.975 77.6198C117.217 77.6456 117.449 77.6649 117.681 77.7004C118.385 77.8246 119.065 78.0633 119.691 78.407C120.31 78.7435 120.84 79.2224 121.237 79.8041C121.65 80.4465 121.858 81.1993 121.834 81.9627C121.831 82.6131 121.617 83.2449 121.224 83.7631C120.921 84.211 120.538 84.5993 120.095 84.9085C119.812 85.0886 119.513 85.241 119.201 85.3635C119.059 85.4151 119.014 85.4699 119.069 85.5216C119.495 85.6031 119.902 85.7663 120.266 86.0023C120.739 86.2852 121.173 86.629 121.556 87.0251C121.968 87.4464 122.314 87.9272 122.582 88.4513C122.856 88.9683 122.999 89.5442 122.999 90.1291C123.018 91.0768 122.722 92.0041 122.157 92.7651C121.547 93.5496 120.732 94.1494 119.801 94.4978C118.662 94.9294 117.45 95.1375 116.233 95.1108H112.554L109.331 95.1915ZM115.429 85.1892C115.927 85.1937 116.425 85.1668 116.92 85.1086C117.595 85.0605 118.236 84.7944 118.746 84.3503C118.989 84.1311 119.18 83.861 119.307 83.5593C119.434 83.2576 119.492 82.9317 119.479 82.6048C119.479 81.3787 119.172 80.4236 118.559 79.7396C117.946 79.0556 117.036 78.7146 115.829 78.7168C115.194 78.6954 114.558 78.7572 113.939 78.9007C113.832 78.9201 113.777 79.0007 113.777 79.1427L113.671 81.8336V85.0021C113.671 85.1204 114.253 85.1785 115.416 85.1763L115.429 85.1892ZM115.536 93.9235C115.978 93.9237 116.419 93.8881 116.855 93.817C117.387 93.7219 117.908 93.5793 118.414 93.3911C119.002 93.2071 119.516 92.8382 119.879 92.3392C120.266 91.7821 120.462 91.1139 120.437 90.4356C120.45 89.7071 120.277 88.9874 119.933 88.3448C119.578 87.705 119.04 87.1859 118.388 86.8541C117.552 86.4478 116.629 86.2549 115.7 86.2927C115.502 86.2927 115.244 86.3024 114.926 86.3217C114.603 86.3379 114.226 86.3637 113.78 86.3992C113.698 86.6851 113.662 86.9826 113.674 87.28V91.1841C113.674 92.5328 113.816 93.3233 114.1 93.5557C114.381 93.788 114.861 93.9106 115.536 93.9106V93.9235Z" fill="#37425E"/>
<path fill-rule="evenodd" clip-rule="evenodd" d="M73.7069 46.8548C73.7069 46.8548 78.8436 27.9634 72.3615 15.8574C72.3615 15.8574 78.8145 22.7977 81.5023 29.2185C81.5023 29.2185 81.7475 25.6113 80.3407 23.5334C80.3407 23.5334 85.416 29.3411 85.7226 36.5557C85.7226 36.5557 91.7142 21.391 69.335 8.67516C69.335 8.67516 74.4716 9.2269 77.0399 11.3661C77.0399 11.3661 74.1038 7.72656 71.1096 6.74892C72.832 6.44121 74.608 6.72072 76.1526 7.54265C76.1526 7.54265 63.7434 -1.07544 55.4867 3.26426C55.4867 3.26426 53.3184 5.34215 55.306 6.78119C55.306 6.78119 46.1652 5.83258 44.0131 15.0024C44.0131 15.0024 34.3819 22.004 33.4946 24.0206C33.4946 24.0206 36.0758 24.5401 37.1341 23.6979C37.1341 23.6979 37.8052 25.8984 35.6047 26.7535C37.9988 29.7477 43.613 31.7062 47.3429 30.606C47.3429 30.606 47.0686 33.0517 44.0421 31.8966C42.9204 31.5542 41.7767 31.289 40.6188 31.1028C40.6188 31.1028 38.8442 34.5875 41.8707 36.6364C41.8707 36.6557 42.6773 35.1457 45.0972 34.2229C48.4044 32.9613 53.4604 33.8293 55.4221 30.9383C57.3839 28.0473 55.6351 21.7297 52.9893 19.4841C57.3032 21.42 60.3297 24.2755 59.5134 28.1957C57.3064 38.7626 42.6128 31.4707 42.8999 42.1215C42.8999 42.1215 41.2544 39.1756 39.4572 37.514C39.1367 37.2165 38.8828 36.8545 38.7121 36.4519C38.5413 36.0493 38.4577 35.6152 38.4667 35.178C38.5268 33.9148 38.4966 32.6489 38.3763 31.39C38.3763 31.39 33.1171 28.4571 32.0781 23.9302C34.7404 20.2614 38.0319 17.0935 41.7997 14.5733C41.7997 14.5733 42.2256 10.111 49.808 5.34215C59.1907 -8.85462 85.6225 9.03653 86.9809 15.3089C84.6914 13.4943 82.2106 11.9352 79.5825 10.6595C94.1019 22.1427 94.702 43.838 81.1118 55.831C81.1118 55.831 84.5352 45.4351 82.8219 40.4211C82.8219 40.4211 80.3794 59.377 66.5601 65.8559C66.5601 65.8559 69.8609 55.0954 69.0059 50.817C69.0059 50.817 59.836 58.5187 64.4887 71.8476C64.4887 71.8476 50.1822 67.8144 48.2237 54.2404C48.2237 54.2404 46.2684 59.4964 47.7365 62.6777C47.7365 62.6777 38.9313 45.9256 50.0596 37.6108C50.0596 37.6108 48.1043 44.2123 51.4051 49.8393C51.4051 49.8393 54.8285 36.204 59.8425 31.6804C59.8425 31.6804 56.6611 37.3042 58.497 43.1733C58.497 43.1733 68.1412 32.2031 59.5973 18.045C59.5973 18.045 63.8757 20.3681 65.0985 22.446C65.0985 22.446 61.0654 15.2347 55.9287 12.2986C63.7176 14.1667 72.0969 23.4721 72.9874 31.803C72.9874 31.803 68.7929 26.2985 67.1183 25.5338C67.1183 25.5338 71.0289 39.7306 63.0819 49.7329C63.0819 49.7329 70.0771 44.4801 70.8482 35.6103C70.8482 35.6103 74.8201 41.6633 73.7198 46.858" fill="#37425E"/>
<path fill-rule="evenodd" clip-rule="evenodd" d="M67.0179 10.6014C67.0179 10.6014 67.6922 14.7572 67.447 16.4092C67.447 16.4092 64.0236 11.1499 62.5556 10.324L63.9623 12.9245C58.1384 11.6339 60.5164 8.10086 62.8008 8.24606C62.8008 8.24606 59.6194 6.68764 58.5805 10.2046L53.3857 8.11055C58.3804 8.78167 64.7367 -0.126809 67.0179 10.6014Z" fill="#37425E"/>
<path fill-rule="evenodd" clip-rule="evenodd" d="M52.6051 14.3312C52.6051 14.3312 49.3786 16.7479 46.7361 16.7479C45.547 17.6172 44.2579 18.3408 42.8965 18.9032C44.1484 17.5803 46.0198 16.1768 47.2523 14.3667C47.2523 14.3667 50.2207 14.4538 52.6051 14.3312Z" fill="#37425E"/>
</svg>
